<svg width="7" height="10" viewBox="0 0 7 10" fill="none" xmlns="http://www.w3.org/2000/svg">
<path d="M0.408203 3.34961C0.322266 3.24219 0.322266 3.0918 0.408203 2.98438L3.24414 0.148438C3.35156 0.0625 3.50195 0.0625 3.60938 0.148438L6.44531 2.98438C6.53125 3.0918 6.53125 3.24219 6.44531 3.34961L6.01562 3.7793C5.9082 3.86523 5.75781 3.86523 5.65039 3.75781L3.99609 2.03906V9.42969C3.99609 9.58008 3.86719 9.6875 3.73828 9.6875H3.13672C2.98633 9.6875 2.87891 9.58008 2.87891 9.42969V2.03906L1.20312 3.75781C1.0957 3.86523 0.945312 3.86523 0.837891 3.7793L0.408203 3.34961Z" fill="#CA9372"/>
</svg>
