<svg width="58" height="58" viewBox="0 0 58 58" fill="none" xmlns="http://www.w3.org/2000/svg">
<path d="M22.1767 17.5001C22.3848 19.1692 22.0337 20.7527 21.6305 22.3362C21.3705 23.3634 21.9036 24.5617 22.7099 24.9041C23.4642 25.2322 24.4915 24.6901 24.9336 23.7058C25.6749 22.0652 25.7659 20.2677 26 18.6556C25.948 17.1862 25.6489 15.9023 25.4148 14.6183C25.0377 12.6496 24.1534 10.9662 22.866 9.53965C22.3198 8.94048 21.6826 8.81208 20.9803 9.29713C19.888 10.0532 19.7189 10.8093 20.4211 12.0077C21.4095 13.6911 21.9296 15.5314 22.1767 17.5001Z" fill="#A0A0A0"/>
<path d="M33.3711 13.5811C32.4912 12.6981 31.441 12.0715 30.405 11.4164C29.7096 10.9892 28.9149 10.9322 28.1201 11.0604C27.0273 11.2455 26.63 11.8294 27.0415 12.8548C27.9924 15.1903 28.1059 17.6256 27.893 20.0893C27.7369 21.9834 27.3396 23.792 26.1616 25.3443C25.1256 26.7115 23.678 27.1387 22.046 26.5833C20.6552 26.1134 19.6759 24.6892 19.6617 23.1512C19.6617 22.3822 19.8036 21.6416 19.9881 20.9011C20.1868 20.1748 20.4281 19.4342 20.3571 18.6652C20.3004 18.0671 20.0449 17.5829 19.463 17.3692C18.8954 17.1699 18.4554 17.4262 18.0722 17.8392C17.462 18.5085 16.8517 19.1779 16.2131 19.8187C14.6804 21.3283 13.843 21.3853 12.0832 20.1605C11.1182 19.4912 10.2951 19.5197 9.65642 20.2602C8.77652 21.2856 8.77652 21.8552 9.6848 22.8521C9.94026 23.1369 10.1957 23.4218 10.4795 23.6639C10.9621 24.0769 11.1608 24.5895 11.1182 25.2162C11.0472 26.1276 11.0047 27.0248 10.9337 28.3208C10.6073 29.9158 11.7994 31.2402 12.9915 32.465C17.6749 37.2358 22.4291 41.9496 27.1551 46.692C27.9782 47.5179 28.9432 48.1588 29.9934 48.5433C31.4694 49.0845 33.0873 49.2269 34.5065 48.5148C35.9257 47.8028 37.2029 46.8628 38.3383 45.6666C40.9922 42.8753 43.8164 40.2407 46.527 37.4921C47.6482 36.3671 48.5423 34.9999 48.8545 33.4476C49.3796 30.9269 48.4429 28.7765 46.6973 26.9963C42.2694 22.4961 37.7848 18.0528 33.3569 13.5668L33.3711 13.5811ZM40.5522 36.1392C40.0129 36.2816 39.4594 36.3101 38.9202 36.4098C37.4584 36.6804 36.6778 37.4921 36.4508 38.9732C36.3798 39.4574 36.3372 39.9701 36.2237 40.44C36.025 41.2376 35.4715 41.4654 34.7761 41.0239C34.1659 40.6394 33.7685 40.0698 33.4705 39.4147C32.7183 37.7627 32.0797 37.4351 30.3057 37.7342C29.7948 37.8197 29.2696 37.9478 28.7445 37.9051C27.8079 37.8339 27.4673 37.1788 27.9782 36.3955C28.2762 35.9398 28.6594 35.5268 29.0426 35.1281C30.1779 33.9318 30.3199 33.2625 29.6386 31.7386C29.4541 31.3114 29.1987 30.9127 29 30.4997C28.7729 30.0439 28.7729 29.6025 29.1419 29.2037C29.5251 28.7765 29.9651 28.6768 30.476 28.9046C30.9301 29.1183 31.3559 29.3461 31.81 29.574C33.144 30.2433 33.9814 30.1294 35.0458 29.0898C35.5283 28.6198 35.9682 28.0929 36.5927 27.8223C37.4584 27.452 38.0544 27.8508 38.0403 28.9189C37.9693 29.2607 37.8558 29.7449 37.7706 30.2433C37.501 31.8383 37.8558 32.5504 39.3033 33.3052C39.9845 33.6612 40.6516 33.9745 41.0915 34.6581C41.5882 35.4271 41.4463 35.9256 40.5664 36.1392H40.5522Z" fill="#A0A0A0"/>
</svg>
