<svg width="12" height="12" viewBox="0 0 12 12" fill="none" xmlns="http://www.w3.org/2000/svg">
<path d="M12 6C12 9.31371 9.31371 12 6 12C2.68629 12 0 9.31371 0 6C0 2.68629 2.68629 0 6 0C9.31371 0 12 2.68629 12 6Z" fill="#FFC528"/>
<path fill-rule="evenodd" clip-rule="evenodd" d="M6 11C8.76142 11 11 8.76142 11 6C11 3.23858 8.76142 1 6 1C3.23858 1 1 3.23858 1 6C1 8.76142 3.23858 11 6 11ZM6 12C9.31371 12 12 9.31371 12 6C12 2.68629 9.31371 0 6 0C2.68629 0 0 2.68629 0 6C0 9.31371 2.68629 12 6 12Z" fill="#FF8929"/>
<path d="M6.57983 9.5C6.06891 9.5 5.59496 9.42405 5.15798 9.27214C4.72101 9.12023 4.34118 8.89844 4.01849 8.60677C3.70252 8.3151 3.45378 7.95356 3.27227 7.52214C3.09076 7.09071 3 6.59245 3 6.02734C3 5.46832 3.09412 4.97309 3.28235 4.54167C3.47059 4.10417 3.72605 3.73351 4.04874 3.42969C4.37143 3.12587 4.75126 2.89497 5.18824 2.73698C5.62521 2.57899 6.08908 2.5 6.57983 2.5C7.11765 2.5 7.57479 2.58811 7.95126 2.76432C8.33445 2.94054 8.64706 3.14106 8.88908 3.36589L8.09244 4.22266C7.91092 4.06467 7.70588 3.93099 7.47731 3.82161C7.25546 3.71224 6.97311 3.65755 6.63025 3.65755C6.32101 3.65755 6.03529 3.71224 5.77311 3.82161C5.51765 3.92491 5.2958 4.07682 5.10756 4.27734C4.92605 4.47786 4.78151 4.72092 4.67395 5.00651C4.57311 5.2921 4.52269 5.61719 4.52269 5.98177C4.52269 6.71701 4.70756 7.29427 5.07731 7.71354C5.44706 8.12674 5.99832 8.33333 6.73109 8.33333C6.91261 8.33333 7.0874 8.31207 7.25546 8.26953C7.42353 8.227 7.56135 8.16319 7.66891 8.07812V6.7474H6.3479V5.64453H9V8.6888C8.74454 8.91363 8.4084 9.10503 7.9916 9.26302C7.57479 9.42101 7.1042 9.5 6.57983 9.5Z" fill="#FF8929"/>
</svg>
