<svg xmlns="http://www.w3.org/2000/svg" viewBox="0 0 50.86 80.19"><defs><style>.cls-1{fill:#231f20;}</style></defs><g id="Layer_2" data-name="Layer 2"><g id="Layer_2-2" data-name="Layer 2"><path class="cls-1" d="M2.83,29.23,5,33.81a28.26,28.26,0,0,1,18.13-8.7l-2-4.22-.06,0c-1.3-2-5.44-2.14-9.86-.45-1-4-2.11-12.17,1.34-15.64,2-2,5.41-2.32,10.18-1a1.5,1.5,0,0,0,1.88-1A1.54,1.54,0,0,0,23.55.94C17.63-.75,13.19-.16,10.37,2.68c-5.21,5.26-2.68,16.42-2,19.1C4.52,24,2.21,27.05,2.89,29.2Z"/><path class="cls-1" d="M23.42,11l6.81,4.6a.64.64,0,0,1,.25.75l-2.81,7.73a.64.64,0,0,0,1,.72l6.48-5a.62.62,0,0,1,.79,0l6.48,5a.64.64,0,0,0,1-.72l-2.81-7.73a.65.65,0,0,1,.24-.75L47.66,11a.64.64,0,0,0-.38-1.17l-8.21.28a.63.63,0,0,1-.64-.47l-2.27-7.9a.65.65,0,0,0-1.24,0l-2.26,7.9a.65.65,0,0,1-.64.47L23.8,9.86A.64.64,0,0,0,23.42,11Z"/><path class="cls-1" d="M49.48,46.55a45.88,45.88,0,0,0-19.65,1A44,44,0,0,0,3.21,67.11,25.41,25.41,0,0,0,49.48,46.55Z"/><path class="cls-1" d="M28.3,41.82a53.81,53.81,0,0,1,17.9-1.7A25.42,25.42,0,0,0,.53,59.93,52,52,0,0,1,28.3,41.82Z"/></g></g></svg>