<svg xmlns="http://www.w3.org/2000/svg" viewBox="0 0 100.74 49.03"><defs><style>.cls-1{fill:#231f20;}</style></defs><g id="Layer_2" data-name="Layer 2"><g id="Layer_2-2" data-name="Layer 2"><path class="cls-1" d="M86.23,24.16S82.41,40.46,61.93,45a21.69,21.69,0,0,0,6.51-31.12L56,21.3l6.84,5.12L36.07,32.49,49.13,25l-5.91-5L59,6.57A74.58,74.58,0,0,1,88.75,12.5C89.37,12.54,69,0,52.47,0,36.08,0,16.81,4,0,26.42H15.11a57.56,57.56,0,0,1,19-14.05,21.73,21.73,0,0,0,5.94,33A116.55,116.55,0,0,1,20.29,40.6c-.62,0,50,27.38,80.45-16.45Z"/></g></g></svg>