<svg xmlns="http://www.w3.org/2000/svg" viewBox="0 0 86.23 86.24"><defs><style>.cls-1{fill:#231f20;}</style></defs><g id="Layer_2" data-name="Layer 2"><g id="Layer_2-2" data-name="Layer 2"><path class="cls-1" d="M46.19,55.76c0-8.59,3.59-15.51,11.45-20.77a2.19,2.19,0,0,0-3-2.93c-3.49,3-5.92,6-11.55,6.25-6.33.32-11.34-5.1-12.47-6.21A2.22,2.22,0,0,0,28,34.86C35.93,40.12,40,47.1,40,55.76c0,10.58-7.55,19.79-18.75,24.78a43.53,43.53,0,0,0,21.83,5.7A43.53,43.53,0,0,0,65,80.54C53.74,75.55,46.19,66.34,46.19,55.76Z"/><path class="cls-1" d="M36.33,33.16C46.12,16.24,33,2.28,33,2.28,23,20.37,36.33,33.16,36.33,33.16Z"/><path class="cls-1" d="M25.71,32.58c2-17.17-15.61-19.21-15.61-19.21C8.37,31.46,25.71,32.58,25.71,32.58Z"/><path class="cls-1" d="M3,19.17A24,24,0,0,0,0,30.64a23.73,23.73,0,0,0,2.06,9.54A16.81,16.81,0,0,1,12,32C5.25,28.6,3.35,21,3,19.17Z"/><path class="cls-1" d="M6.43,45.48c14.78.7,17.08-10.06,17.08-10.06C8.74,31.38,6.43,45.48,6.43,45.48Z"/><path class="cls-1" d="M24.31,14.33s-1.61-7.68,1.15-12A44,44,0,0,0,13.32,8c-.06.08-.13.14-.2.22S18.69,7.12,24.31,14.33Z"/><path class="cls-1" d="M49.9,33.42S63.25,20.63,53.24,2.54C53.24,2.54,40.11,16.5,49.9,33.42Z"/><path class="cls-1" d="M76.13,13.62S58.52,15.67,60.52,32.83C60.52,32.83,77.86,31.72,76.13,13.62Z"/><path class="cls-1" d="M83.26,19.43c-.38,1.87-2.27,9.43-9,12.79a16.81,16.81,0,0,1,9.92,8.22,23.57,23.57,0,0,0,2.06-9.54A24.13,24.13,0,0,0,83.26,19.43Z"/><path class="cls-1" d="M62.73,35.68S65,46.44,79.8,45.74C79.8,45.74,77.5,31.64,62.73,35.68Z"/><path class="cls-1" d="M61.92,14.59c5.62-7.21,11.19-6.08,11.19-6.08s-.13-.14-.2-.22A44,44,0,0,0,60.77,2.55C63.54,6.91,61.92,14.59,61.92,14.59Z"/><path class="cls-1" d="M43.11,12.46A37.59,37.59,0,0,1,48.75.28C46.94.12,45.07,0,43.11,0s-3.82.11-5.62.27a37.71,37.71,0,0,1,5.62,12.16Z"/></g></g></svg>