<svg xmlns="http://www.w3.org/2000/svg" viewBox="0 0 60.8 77.57"><defs><style>.cls-1{fill:#231f20;}</style></defs><g id="Layer_2" data-name="Layer 2"><g id="Layer_5" data-name="Layer 5"><path class="cls-1" d="M0,41.57s3,7.73,3.87,8.52c5.47,5,7,1.55,10.07,4.64s12,7.36,13.16,8.91S39.48,77.57,39.48,77.57,31.35,64.8,29,59.57,21.29,52,15.87,47.77,2.71,42,0,41.57Z"/><path class="cls-1" d="M4.26,19.89s5.8,10.46,10.06,11.62,15.3,11.63,19.74,14.32c5.42,3.28,8.91,8.9,9.68,11.23s5.24,5.21,6.4,9.47S53,70.22,53,70.22s-.38-6.2-3.09-10.65-1.55-9.87-3.88-12.19a122.62,122.62,0,0,1-9.29-11.61C35.23,33.44,25.55,26.56,24,26.32s-8.89-1.94-10.83-2.95S4.26,19.89,4.26,19.89Z"/><path class="cls-1" d="M27.06,0A68.72,68.72,0,0,0,33.5,9.62a69,69,0,0,1,6,10.27s1.33.76,4.43,5,3.7,8.15,5.25,10.08,2.92,4,2.92,4,2.11,8,4.82,12.6a39.17,39.17,0,0,1,3.87,9.67,59.1,59.1,0,0,0-1.93-16.25c-2.32-8.91-.39-10.46-1.16-12.78s-3.1-8.9-4.65-12.39l-1.55-3.48h0s-6.94-4.26-6.76-8.13A40.61,40.61,0,0,0,27.06,0Z"/></g></g></svg>