<svg xmlns="http://www.w3.org/2000/svg" viewBox="0 0 206.52 227.21"><g id="Layer_2" data-name="Layer 2"><g id="Girlcrush"><path d="M40,170.18s23.74-11.87,16.68-18.29S18.81,113.4,6.94,88.06-9-3.69,58,.16c0,0,11.52,1.6,28.2,18.93,0,0,16,1.28,18.08,1S135,6.47,149.37,11.71c10.26,3.75,10.37,8,21.49,19.57,0,0,16-1,21.17.32s13.48,25,13.48,25S210,69.77,200.05,72a50.62,50.62,0,0,1-17.64,1s-13.69,32.93,11.87,48.44c0,0-4.81,6.73-9.3,8s-6.47,2-6.47,2,1.66,1.82,2.62,2.78,1.92,8.34-7.06,8.34c0,0,4.76,7.49-1.92,7.38,0,0-4.5,12.51-15.4,9s-31.44-6.42-31.44-6.42-14.67,25.67-15.84,29.2-7.9,16,3.33,23.41a95.34,95.34,0,0,1,18.93,16.68s-15.72,8-24.7,4.5S60.83,208,60.83,208s-7.38-2.57,1.93-13.79,28.55-31.76,25.66-60.63c0,0-16.46-26.35-18.51-41.29-2.16-15.67,7.28-41.15,7.28-41.15S44.47,63.68,44.79,90.94s8.2,40.81,30.58,65.44C75.37,156.38,74,176.27,40,170.18Z"/></g></g></svg>