<svg xmlns="http://www.w3.org/2000/svg" viewBox="0 0 171.78 271.45"><g id="Layer_2" data-name="Layer 2"><g id="Guardian"><path d="M65.24,71.5S43.49,90.43,1.13,88.26c0,0-6.35,70.15,11,101.81,12.86,23.42,24.5,40.14,61.15,55.25,0,0-3.1-13.66-3.41-17.69,0,0-65.81-30.11-55.25-125.72,0,0,33.83-4.34,53.07-14.89Z"/><path d="M68,91.46S34.72,104.71,18.89,104.4c0,0-8.59,69.32,50,114.85,0,0-3.31-44.6-1.86-63.89S68.59,97.44,68,91.46Z"/><path d="M106.54,71.5s21.75,18.93,64.11,16.76c0,0,6.35,70.15-11,101.81-12.86,23.42-24.49,40.14-61.15,55.25,0,0,3.11-13.66,3.42-17.69,0,0,65.8-30.11,55.25-125.72,0,0-33.83-4.34-53.08-14.89Z"/><path d="M103.75,91.46s33.32,13.25,49.15,12.94c0,0,8.59,69.32-50,114.85,0,0,3.31-44.6,1.87-63.89S103.2,97.44,103.75,91.46Z"/><path d="M95.66,8.8C96.92,14,91.35,17.33,86,17.33S75.11,14,76.41,8.8,80.72,0,86,0,94.26,3.05,95.66,8.8Z"/><circle cx="56.5" cy="56.96" r="4.71"/><circle cx="115.27" cy="56.96" r="4.71"/><polygon points="86.03 10.51 86.03 11.17 85.79 10.85 86.03 10.51"/><path d="M114.43,56l-3.05,3.14-8.18.58s-6.93,6.68-8.48,21,1.39,77.75,1.7,82.26S96.27,208.69,95,218s-9,53.38-9,53.38v.06S78.28,227.32,77,218s-1.7-50.6-1.39-55.1,3.26-68,1.71-82.26-8.49-21-8.49-21l-8.18-.58-3-3.14s.57-3.41,2.36-2.17A25.41,25.41,0,0,0,64,56H79.67l2.8-40.2,3-4.52.27-.41.24.32,3.56,4.61L92.38,56h15.68a25.41,25.41,0,0,0,4-2.17C113.87,52.57,114.43,56,114.43,56Z"/><polygon points="85.79 10.85 85.52 11.26 85.52 10.51 85.79 10.85"/></g></g></svg>