<svg xmlns="http://www.w3.org/2000/svg" viewBox="0 0 196.38 181.44"><g id="Layer_2" data-name="Layer 2"><g id="mirage"><path d="M195.75,110.08S193.36,19.14,99.2,20.84c0,0-61.92,4.71-65.65,69.2,0,0-2.73,63.48,65.65,61.78,0,0,36.49-2,40.56-41.74S102.77,60.2,88.18,69A31.62,31.62,0,0,0,69.52,95.83C67.82,116.19,87.84,122.64,94,123s23.07-3.4,22.39-19.69S103.8,84.82,99.2,84.63,86.48,89.38,85.46,96.85s4.08,13.91,10.18,14.25,10.64-4.08,10.18-9.16c-.57-6.49-5.29-8-7.63-7.55-3.39.67-3.26,3.44-1.27,6.61,0,0-5.69-2.64-2.12-7.93,1.73-2.55,9.31-3.24,13.07,3.08s0,12.85-1.78,14.63-10.23,7.54-20.07.54c-12.7-9-4.4-24.41-.43-27.94s17.93-10.94,32,1.71,5.53,35.37,1.19,39.12-11.47,10.45-24.31,10.48c-13.64,0-39.52-9.29-39.13-42.29s31.22-45.65,51.58-44.86,58.57,15.21,56.17,62.87-38.75,71-78.86,71S-5.65,145,.52,82.29,71,.06,99.2,0c28.51-.06,87.07,16.12,96.55,86.75A112,112,0,0,1,195.75,110.08Z"/></g></g></svg>