<svg width="44" height="35" viewBox="0 0 44 35" fill="none" xmlns="http://www.w3.org/2000/svg">
<path fill-rule="evenodd" clip-rule="evenodd" d="M1.94118 14.4495L11.9706 35C13.9118 30.7187 18.3765 22.2202 20.7059 22.4771C23.6176 22.7982 23.9412 26.0092 23.9412 27.2936V30.8257H26.8529C28.1471 29.4342 30.9294 26.5872 31.7059 26.3303C32.4824 26.0734 30.0882 26.4373 28.7941 26.6514C28.2549 24.9388 28.0824 21 31.7059 18.945C35.3294 16.8899 36.6667 17.0183 36.8824 17.3394L36.5588 20.8716C37.6373 20.2294 40.1824 18.4954 41.7353 16.6972C43.2882 14.8991 43.8922 12.5229 44 11.5596L38.1765 8.34862C38.6078 8.24159 39.4706 7.83486 39.4706 7.06422C39.4706 6.10092 33.6471 2.88991 28.7941 2.24771C24.9118 1.73395 23.5098 1.6055 23.2941 1.6055L24.9118 3.85321L23.6176 4.17431C22.9706 3.42508 21.0941 1.73395 18.7647 0.963303C16.4353 0.192661 13.9118 0 12.9412 0C12.8333 1.2844 12.9412 4.11009 14.2353 5.13761C15.5294 6.16514 17.7941 6.85015 18.7647 7.06422C17.3627 7.27829 14.2353 7.57798 12.9412 7.06422C11.6471 6.55046 5.06863 11.7737 1.94118 14.4495ZM27.1765 9.95437C30.0882 9.63303 33.9706 9.95437 33.9706 9.95437C33.9706 9.95437 32.0294 7.70646 30.4118 8.02756C29.1176 8.28444 27.7157 9.41913 27.1765 9.95437Z" fill="black"/>
<path d="M13.2647 6.10092L0 7.38532C3.88235 5.13761 11.3235 1.6055 11.3235 1.6055C11.3235 1.6055 12.5098 4.92355 13.2647 6.10092Z" fill="black"/>
</svg>
